<?xml version="1.0" encoding="UTF-8"?>
<svg xmlns="http://www.w3.org/2000/svg" xmlns:xlink="http://www.w3.org/1999/xlink"
     width="1500" height="1500" viewBox="-150.0 -150.0 300 300">
<defs>
</defs>
<rect x="3.0" y="0.0" width="2.5" height="2.5" rx="1.0" ry="1.0" stroke="black" fill="blue" transform="translate(-0.75,-0.75)" />
<rect x="4.0" y="0.0" width="2.5" height="2.5" rx="1.0" ry="1.0" stroke="black" fill="blue" transform="translate(-0.75,-0.75)" />
<rect x="6.0" y="1.0" width="2.5" height="2.5" rx="1.0" ry="1.0" stroke="black" fill="blue" transform="translate(-0.75,-0.75)" />
<rect x="6.0" y="1.0" width="2.5" height="2.5" rx="1.0" ry="1.0" stroke="black" fill="blue" transform="translate(-0.75,-0.75)" />
<rect x="6.0" y="2.0" width="2.5" height="2.5" rx="1.0" ry="1.0" stroke="black" fill="blue" transform="translate(-0.75,-0.75)" />
<rect x="6.0" y="3.0" width="2.5" height="2.5" rx="1.0" ry="1.0" stroke="black" fill="blue" transform="translate(-0.75,-0.75)" />
<rect x="5.0" y="4.0" width="2.5" height="2.5" rx="1.0" ry="1.0" stroke="black" fill="blue" transform="translate(-0.75,-0.75)" />
<rect x="6.0" y="4.0" width="2.5" height="2.5" rx="1.0" ry="1.0" stroke="black" fill="blue" transform="translate(-0.75,-0.75)" />
<rect x="6.0" y="4.0" width="2.5" height="2.5" rx="1.0" ry="1.0" stroke="black" fill="blue" transform="translate(-0.75,-0.75)" />
<rect x="6.0" y="4.0" width="2.5" height="2.5" rx="1.0" ry="1.0" stroke="black" fill="blue" transform="translate(-0.75,-0.75)" />
<rect x="6.0" y="3.0" width="2.5" height="2.5" rx="1.0" ry="1.0" stroke="black" fill="blue" transform="translate(-0.75,-0.75)" />
<rect x="6.0" y="3.0" width="2.5" height="2.5" rx="1.0" ry="1.0" stroke="black" fill="blue" transform="translate(-0.75,-0.75)" />
<rect x="7.0" y="3.0" width="2.5" height="2.5" rx="1.0" ry="1.0" stroke="black" fill="blue" transform="translate(-0.75,-0.75)" />
<rect x="7.0" y="3.0" width="2.5" height="2.5" rx="1.0" ry="1.0" stroke="black" fill="blue" transform="translate(-0.75,-0.75)" />
<rect x="7.0" y="3.0" width="2.5" height="2.5" rx="1.0" ry="1.0" stroke="black" fill="blue" transform="translate(-0.75,-0.75)" />
<rect x="7.0" y="3.0" width="2.5" height="2.5" rx="1.0" ry="1.0" stroke="black" fill="blue" transform="translate(-0.75,-0.75)" />
<rect x="9.0" y="3.0" width="2.5" height="2.5" rx="1.0" ry="1.0" stroke="black" fill="blue" transform="translate(-0.75,-0.75)" />
<rect x="10.0" y="4.0" width="2.5" height="2.5" rx="1.0" ry="1.0" stroke="black" fill="blue" transform="translate(-0.75,-0.75)" />
<rect x="10.0" y="4.0" width="2.5" height="2.5" rx="1.0" ry="1.0" stroke="black" fill="blue" transform="translate(-0.75,-0.75)" />
<rect x="2.0" y="3.0" width="2.5" height="2.5" rx="1.0" ry="1.0" stroke="black" fill="orange" transform="translate(-0.75,-0.75)" />
<rect x="5.0" y="3.0" width="2.5" height="2.5" rx="1.0" ry="1.0" stroke="black" fill="orange" transform="translate(-0.75,-0.75)" />
<rect x="5.0" y="4.0" width="2.5" height="2.5" rx="1.0" ry="1.0" stroke="black" fill="orange" transform="translate(-0.75,-0.75)" />
<rect x="6.0" y="4.0" width="2.5" height="2.5" rx="1.0" ry="1.0" stroke="black" fill="orange" transform="translate(-0.75,-0.75)" />
<rect x="6.0" y="4.0" width="2.5" height="2.5" rx="1.0" ry="1.0" stroke="black" fill="orange" transform="translate(-0.75,-0.75)" />
<rect x="6.0" y="4.0" width="2.5" height="2.5" rx="1.0" ry="1.0" stroke="black" fill="orange" transform="translate(-0.75,-0.75)" />
<rect x="6.0" y="3.0" width="2.5" height="2.5" rx="1.0" ry="1.0" stroke="black" fill="orange" transform="translate(-0.75,-0.75)" />
<rect x="7.0" y="3.0" width="2.5" height="2.5" rx="1.0" ry="1.0" stroke="black" fill="orange" transform="translate(-0.75,-0.75)" />
<rect x="7.0" y="3.0" width="2.5" height="2.5" rx="1.0" ry="1.0" stroke="black" fill="orange" transform="translate(-0.75,-0.75)" />
<rect x="7.0" y="3.0" width="2.5" height="2.5" rx="1.0" ry="1.0" stroke="black" fill="orange" transform="translate(-0.75,-0.75)" />
<rect x="8.0" y="4.0" width="2.5" height="2.5" rx="1.0" ry="1.0" stroke="black" fill="orange" transform="translate(-0.75,-0.75)" />
<rect x="8.0" y="4.0" width="2.5" height="2.5" rx="1.0" ry="1.0" stroke="black" fill="orange" transform="translate(-0.75,-0.75)" />
<rect x="9.0" y="5.0" width="2.5" height="2.5" rx="1.0" ry="1.0" stroke="black" fill="orange" transform="translate(-0.75,-0.75)" />
<rect x="0.0" y="5.0" width="2.5" height="2.5" rx="1.0" ry="1.0" stroke="black" fill="#C0C0C0" transform="translate(-0.75,-0.75)" />
<rect x="2.0" y="4.0" width="2.5" height="2.5" rx="1.0" ry="1.0" stroke="black" fill="#C0C0C0" transform="translate(-0.75,-0.75)" />
<rect x="5.0" y="3.0" width="2.5" height="2.5" rx="1.0" ry="1.0" stroke="black" fill="#C0C0C0" transform="translate(-0.75,-0.75)" />
<rect x="5.0" y="3.0" width="2.5" height="2.5" rx="1.0" ry="1.0" stroke="black" fill="#C0C0C0" transform="translate(-0.75,-0.75)" />
<rect x="5.0" y="4.0" width="2.5" height="2.5" rx="1.0" ry="1.0" stroke="black" fill="#C0C0C0" transform="translate(-0.75,-0.75)" />
<rect x="6.0" y="4.0" width="2.5" height="2.5" rx="1.0" ry="1.0" stroke="black" fill="#C0C0C0" transform="translate(-0.75,-0.75)" />
<rect x="6.0" y="4.0" width="2.5" height="2.5" rx="1.0" ry="1.0" stroke="black" fill="#C0C0C0" transform="translate(-0.75,-0.75)" />
<rect x="6.0" y="4.0" width="2.5" height="2.5" rx="1.0" ry="1.0" stroke="black" fill="#C0C0C0" transform="translate(-0.75,-0.75)" />
<rect x="6.0" y="4.0" width="2.5" height="2.5" rx="1.0" ry="1.0" stroke="black" fill="#C0C0C0" transform="translate(-0.75,-0.75)" />
<rect x="6.0" y="4.0" width="2.5" height="2.5" rx="1.0" ry="1.0" stroke="black" fill="#C0C0C0" transform="translate(-0.75,-0.75)" />
<rect x="6.0" y="3.0" width="2.5" height="2.5" rx="1.0" ry="1.0" stroke="black" fill="#C0C0C0" transform="translate(-0.75,-0.75)" />
<rect x="6.0" y="3.0" width="2.5" height="2.5" rx="1.0" ry="1.0" stroke="black" fill="#C0C0C0" transform="translate(-0.75,-0.75)" />
<rect x="7.0" y="3.0" width="2.5" height="2.5" rx="1.0" ry="1.0" stroke="black" fill="#C0C0C0" transform="translate(-0.75,-0.75)" />
<rect x="7.0" y="3.0" width="2.5" height="2.5" rx="1.0" ry="1.0" stroke="black" fill="#C0C0C0" transform="translate(-0.75,-0.75)" />
<rect x="7.0" y="3.0" width="2.5" height="2.5" rx="1.0" ry="1.0" stroke="black" fill="#C0C0C0" transform="translate(-0.75,-0.75)" />
<rect x="7.0" y="3.0" width="2.5" height="2.5" rx="1.0" ry="1.0" stroke="black" fill="#C0C0C0" transform="translate(-0.75,-0.75)" />
<rect x="7.0" y="3.0" width="2.5" height="2.5" rx="1.0" ry="1.0" stroke="black" fill="#C0C0C0" transform="translate(-0.75,-0.75)" />
<rect x="8.0" y="3.0" width="2.5" height="2.5" rx="1.0" ry="1.0" stroke="black" fill="#C0C0C0" transform="translate(-0.75,-0.75)" />
<rect x="9.0" y="3.0" width="2.5" height="2.5" rx="1.0" ry="1.0" stroke="black" fill="#C0C0C0" transform="translate(-0.75,-0.75)" />
<rect x="9.0" y="3.0" width="2.5" height="2.5" rx="1.0" ry="1.0" stroke="black" fill="#C0C0C0" transform="translate(-0.75,-0.75)" />
<rect x="10.0" y="4.0" width="2.5" height="2.5" rx="1.0" ry="1.0" stroke="black" fill="#C0C0C0" transform="translate(-0.75,-0.75)" />
<rect x="10.0" y="4.0" width="2.5" height="2.5" rx="1.0" ry="1.0" stroke="black" fill="#C0C0C0" transform="translate(-0.75,-0.75)" />
<rect x="4.0" y="10.0" width="2.5" height="2.5" rx="1.0" ry="1.0" stroke="black" fill="red" transform="translate(-0.75,-0.75)" />
<rect x="4.0" y="9.0" width="2.5" height="2.5" rx="1.0" ry="1.0" stroke="black" fill="red" transform="translate(-0.75,-0.75)" />
<rect x="5.0" y="8.0" width="2.5" height="2.5" rx="1.0" ry="1.0" stroke="black" fill="red" transform="translate(-0.75,-0.75)" />
<rect x="5.0" y="7.0" width="2.5" height="2.5" rx="1.0" ry="1.0" stroke="black" fill="red" transform="translate(-0.75,-0.75)" />
<rect x="5.0" y="6.0" width="2.5" height="2.5" rx="1.0" ry="1.0" stroke="black" fill="red" transform="translate(-0.75,-0.75)" />
<rect x="6.0" y="5.0" width="2.5" height="2.5" rx="1.0" ry="1.0" stroke="black" fill="red" transform="translate(-0.75,-0.75)" />
<rect x="6.0" y="4.0" width="2.5" height="2.5" rx="1.0" ry="1.0" stroke="black" fill="red" transform="translate(-0.75,-0.75)" />
<rect x="6.0" y="4.0" width="2.5" height="2.5" rx="1.0" ry="1.0" stroke="black" fill="red" transform="translate(-0.75,-0.75)" />
<rect x="6.0" y="4.0" width="2.5" height="2.5" rx="1.0" ry="1.0" stroke="black" fill="red" transform="translate(-0.75,-0.75)" />
<rect x="6.0" y="4.0" width="2.5" height="2.5" rx="1.0" ry="1.0" stroke="black" fill="red" transform="translate(-0.75,-0.75)" />
<rect x="7.0" y="4.0" width="2.5" height="2.5" rx="1.0" ry="1.0" stroke="black" fill="red" transform="translate(-0.75,-0.75)" />
<rect x="7.0" y="4.0" width="2.5" height="2.5" rx="1.0" ry="1.0" stroke="black" fill="red" transform="translate(-0.75,-0.75)" />
<rect x="7.0" y="4.0" width="2.5" height="2.5" rx="1.0" ry="1.0" stroke="black" fill="red" transform="translate(-0.75,-0.75)" />
<rect x="7.0" y="4.0" width="2.5" height="2.5" rx="1.0" ry="1.0" stroke="black" fill="red" transform="translate(-0.75,-0.75)" />
<rect x="7.0" y="5.0" width="2.5" height="2.5" rx="1.0" ry="1.0" stroke="black" fill="red" transform="translate(-0.75,-0.75)" />
<rect x="7.0" y="6.0" width="2.5" height="2.5" rx="1.0" ry="1.0" stroke="black" fill="red" transform="translate(-0.75,-0.75)" />
<rect x="6.0" y="7.0" width="2.5" height="2.5" rx="1.0" ry="1.0" stroke="black" fill="red" transform="translate(-0.75,-0.75)" />
<rect x="6.0" y="8.0" width="2.5" height="2.5" rx="1.0" ry="1.0" stroke="black" fill="red" transform="translate(-0.75,-0.75)" />
<rect x="6.0" y="9.0" width="2.5" height="2.5" rx="1.0" ry="1.0" stroke="black" fill="red" transform="translate(-0.75,-0.75)" />
<rect x="9.0" y="8.0" width="2.5" height="2.5" rx="1.0" ry="1.0" stroke="black" fill="green" transform="translate(-0.75,-0.75)" />
<rect x="7.0" y="6.0" width="2.5" height="2.5" rx="1.0" ry="1.0" stroke="black" fill="green" transform="translate(-0.75,-0.75)" />
<rect x="7.0" y="6.0" width="2.5" height="2.5" rx="1.0" ry="1.0" stroke="black" fill="green" transform="translate(-0.75,-0.75)" />
<rect x="6.0" y="5.0" width="2.5" height="2.5" rx="1.0" ry="1.0" stroke="black" fill="green" transform="translate(-0.75,-0.75)" />
<rect x="7.0" y="3.0" width="2.5" height="2.5" rx="1.0" ry="1.0" stroke="black" fill="green" transform="translate(-0.75,-0.75)" />
<rect x="7.0" y="2.0" width="2.5" height="2.5" rx="1.0" ry="1.0" stroke="black" fill="green" transform="translate(-0.75,-0.75)" />
<rect x="8.0" y="2.0" width="2.5" height="2.5" rx="1.0" ry="1.0" stroke="black" fill="green" transform="translate(-0.75,-0.75)" />
<rect x="8.0" y="2.0" width="2.5" height="2.5" rx="1.0" ry="1.0" stroke="black" fill="green" transform="translate(-0.75,-0.75)" />
<rect x="7.0" y="6.0" width="2.5" height="2.5" rx="1.0" ry="1.0" stroke="black" fill="yellow" transform="translate(-0.75,-0.75)" />
<rect x="6.0" y="5.0" width="2.5" height="2.5" rx="1.0" ry="1.0" stroke="black" fill="yellow" transform="translate(-0.75,-0.75)" />
<rect x="6.0" y="2.0" width="2.5" height="2.5" rx="1.0" ry="1.0" stroke="black" fill="yellow" transform="translate(-0.75,-0.75)" />
<rect x="6.0" y="1.0" width="2.5" height="2.5" rx="1.0" ry="1.0" stroke="black" fill="yellow" transform="translate(-0.75,-0.75)" />
<rect x="6.0" y="1.0" width="2.5" height="2.5" rx="1.0" ry="1.0" stroke="black" fill="yellow" transform="translate(-0.75,-0.75)" />
<rect x="5.0" y="0.0" width="2.5" height="2.5" rx="1.0" ry="1.0" stroke="black" fill="yellow" transform="translate(-0.75,-0.75)" />
</svg>